<?xml version="1.0" encoding="UTF-8" standalone="no"?>
<!DOCTYPE svg PUBLIC "-//W3C//DTD SVG 1.1//EN" "http://www.w3.org/Graphics/SVG/1.1/DTD/svg11.dtd">
<svg width="100%" height="100%" viewBox="0 0 226 226" version="1.1" xmlns="http://www.w3.org/2000/svg" xmlns:xlink="http://www.w3.org/1999/xlink" xml:space="preserve" xmlns:serif="http://www.serif.com/" style="fill-rule:evenodd;clip-rule:evenodd;stroke-linejoin:round;stroke-miterlimit:2;">
    <g transform="matrix(1,0,0,1,-0.131716,0.745608)">
        <path d="M89.073,148.296C97.094,148.296 101.162,140.41 101.627,132.282L101.162,132.282C100.465,136.164 97.559,141.381 90.701,141.381C80.007,141.381 66.407,127.307 59.2,113.598C58.502,112.263 58.967,111.535 60.246,111.293C69.661,109.958 97.559,107.41 97.559,84.48C97.559,72.105 85.47,60.943 67.801,60.943C61.757,60.943 51.295,62.52 44.786,62.52L33.046,62.52L33.046,63.006C40.95,63.006 44.437,64.219 44.437,71.62L44.437,137.984C44.437,145.385 40.95,146.598 33.046,146.598L33.046,147.083L61.873,147.083L61.873,146.598C53.969,146.598 50.482,145.385 50.482,137.984L50.482,63.127C53.853,62.763 60.13,62.278 65.825,62.278C81.401,62.278 90.933,72.469 90.933,84.601C90.933,105.348 70.01,108.987 60.246,110.201C57.921,110.443 57.224,112.263 58.27,114.204C63.617,123.91 74.66,148.296 89.073,148.296Z"/>
        <path d="M140.429,71.134L144.73,83.995L126.248,139.682L106.022,76.958C101.721,65.19 105.208,63.006 115.437,63.006L115.437,62.52L90.446,62.52L90.446,63.006C92.77,63.006 94.398,64.098 96.723,71.134L122.063,147.083L124.969,147.083L145.311,85.815L165.769,147.083L168.791,147.083L189.482,83.995C191.342,78.292 193.202,73.197 191.458,67.373C190.063,62.52 186.692,59.487 183.67,60.337C182.159,60.943 181.578,62.278 181.926,63.612C182.973,67.252 189.133,65.311 190.644,70.77C191.574,73.561 190.179,77.929 188.552,82.903L169.954,139.682L149.728,76.958C145.427,65.19 148.914,63.006 159.143,63.006L159.143,62.52L130.664,62.52L130.664,63.006C135.43,63.006 138.104,64.098 140.429,71.134Z"/>
        <path d="M56.789,163.267C58,163.267 58.493,161.998 57.389,160.306L57.024,159.73L59.668,155.441L60.291,162.233C60.362,162.95 59.915,163.067 58.881,163.067L58.881,163.114L62.136,163.114L62.136,163.067C61.337,163.067 60.973,162.95 60.902,162.233L60.315,155.805C60.244,155.089 60.585,154.971 61.384,154.971L61.384,154.924L59.845,154.924L56.954,159.624L53.934,154.924L52.371,154.924L52.371,154.971C53.17,154.971 53.511,155.089 53.44,155.805L52.876,162.151C52.806,162.938 52.477,163.067 51.76,163.067L51.76,163.114L54.392,163.114L54.392,163.067C53.358,163.067 52.935,162.832 53.041,161.622L53.57,155.57L56.578,160.224L56.178,160.871C55.403,162.127 55.826,163.267 56.789,163.267ZM56.284,160.929L56.648,160.341L57.342,161.422C57.882,162.268 57.776,163.173 56.789,163.173C55.979,163.173 55.52,162.163 56.284,160.929Z"/>
        <path d="M56.789,163.267C58,163.267 58.493,161.998 57.389,160.306L57.024,159.73L59.668,155.441L60.291,162.233C60.362,162.95 59.915,163.067 58.881,163.067L58.881,163.114L62.136,163.114L62.136,163.067C61.337,163.067 60.973,162.95 60.902,162.233L60.315,155.805C60.244,155.089 60.585,154.971 61.384,154.971L61.384,154.924L59.845,154.924L56.954,159.624L53.934,154.924L52.371,154.924L52.371,154.971C53.17,154.971 53.511,155.089 53.44,155.805L52.876,162.151C52.806,162.938 52.477,163.067 51.76,163.067L51.76,163.114L54.392,163.114L54.392,163.067C53.358,163.067 52.935,162.832 53.041,161.622L53.57,155.57L56.578,160.224L56.178,160.871C55.403,162.127 55.826,163.267 56.789,163.267ZM56.284,160.929L56.648,160.341L57.342,161.422C57.882,162.268 57.776,163.173 56.789,163.173C55.979,163.173 55.52,162.163 56.284,160.929Z" style="fill:none;stroke:black;stroke-width:1px;"/>
        <path d="M79.092,163.067L79.092,163.114L81.642,163.114L81.642,163.067C81.407,163.067 81.243,162.962 80.984,162.292L78.082,154.924L77.365,154.924L77.729,155.852L75.038,162.304C74.756,162.962 74.521,163.067 74.122,163.067L74.122,163.114L76.449,163.114L76.449,163.067C75.332,163.067 74.944,162.868 75.379,161.81L75.391,161.787C75.861,160.636 77.765,160.976 78.987,159.049L80.033,161.717C80.479,162.856 80.127,163.067 79.092,163.067ZM75.602,161.259L77.788,156.017L78.951,158.966C78.023,160.365 76.425,160.012 75.602,161.259Z"/>
        <path d="M79.092,163.067L79.092,163.114L81.642,163.114L81.642,163.067C81.407,163.067 81.243,162.962 80.984,162.292L78.082,154.924L77.365,154.924L77.729,155.852L75.038,162.304C74.756,162.962 74.521,163.067 74.122,163.067L74.122,163.114L76.449,163.114L76.449,163.067C75.332,163.067 74.944,162.868 75.379,161.81L75.391,161.787C75.861,160.636 77.765,160.976 78.987,159.049L80.033,161.717C80.479,162.856 80.127,163.067 79.092,163.067ZM75.602,161.259L77.788,156.017L78.951,158.966C78.023,160.365 76.425,160.012 75.602,161.259Z" style="fill:none;stroke:black;stroke-width:1px;"/>
        <path d="M94.545,155.629L94.909,156.111L94.909,162.233C94.909,162.95 94.557,163.067 93.758,163.067L93.758,163.114L96.519,163.114L96.519,163.067C95.485,163.067 95.027,162.95 95.027,162.233L95.027,156.264L100.185,163.114L100.655,163.114L100.655,155.805C100.655,155.089 100.902,154.971 101.466,154.971L101.466,154.924L99.045,154.924L99.045,154.971C100.079,154.971 100.538,155.089 100.538,155.805L100.538,162.409L94.909,154.924L93.628,154.924L93.628,154.971C93.899,154.971 94.11,155.053 94.545,155.629Z"/>
        <path d="M94.545,155.629L94.909,156.111L94.909,162.233C94.909,162.95 94.557,163.067 93.758,163.067L93.758,163.114L96.519,163.114L96.519,163.067C95.485,163.067 95.027,162.95 95.027,162.233L95.027,156.264L100.185,163.114L100.655,163.114L100.655,155.805C100.655,155.089 100.902,154.971 101.466,154.971L101.466,154.924L99.045,154.924L99.045,154.971C100.079,154.971 100.538,155.089 100.538,155.805L100.538,162.409L94.909,154.924L93.628,154.924L93.628,154.971C93.899,154.971 94.11,155.053 94.545,155.629Z" style="fill:none;stroke:black;stroke-width:1px;"/>
        <path d="M116.401,163.267C117.659,163.267 118.916,162.409 118.916,161.199C118.916,158.532 114.18,159.107 114.18,156.534C114.18,155.418 114.85,154.853 116.049,154.853C117.365,154.853 118.082,155.747 118.399,157.486L118.446,157.486L118.446,154.877L118.399,154.877C118.34,155.053 118.258,155.277 117.988,155.277C117.659,155.277 116.965,154.771 116.084,154.771C114.615,154.771 113.522,155.5 113.522,156.734C113.522,159.648 118.493,159.201 118.493,161.528C118.493,162.597 117.247,163.173 116.413,163.173C114.557,163.173 113.828,162.163 113.499,160.247L113.452,160.247L113.452,163.161L113.499,163.161C113.593,162.832 113.687,162.621 113.922,162.621C114.369,162.621 114.897,163.267 116.401,163.267Z"/>
        <path d="M116.401,163.267C117.659,163.267 118.916,162.409 118.916,161.199C118.916,158.532 114.18,159.107 114.18,156.534C114.18,155.418 114.85,154.853 116.049,154.853C117.365,154.853 118.082,155.747 118.399,157.486L118.446,157.486L118.446,154.877L118.399,154.877C118.34,155.053 118.258,155.277 117.988,155.277C117.659,155.277 116.965,154.771 116.084,154.771C114.615,154.771 113.522,155.5 113.522,156.734C113.522,159.648 118.493,159.201 118.493,161.528C118.493,162.597 117.247,163.173 116.413,163.173C114.557,163.173 113.828,162.163 113.499,160.247L113.452,160.247L113.452,163.161L113.499,163.161C113.593,162.832 113.687,162.621 113.922,162.621C114.369,162.621 114.897,163.267 116.401,163.267Z" style="fill:none;stroke:black;stroke-width:1px;"/>
        <path d="M130.784,163.114L133.699,163.114L133.699,163.067C132.9,163.067 132.547,162.95 132.547,162.233L132.547,155.805C132.547,155.089 132.9,154.971 133.699,154.971L133.699,154.924L130.784,154.924L130.784,154.971C131.583,154.971 131.936,155.089 131.936,155.805L131.936,162.233C131.936,162.95 131.583,163.067 130.784,163.067L130.784,163.114Z"/>
        <path d="M130.784,163.114L133.699,163.114L133.699,163.067C132.9,163.067 132.547,162.95 132.547,162.233L132.547,155.805C132.547,155.089 132.9,154.971 133.699,154.971L133.699,154.924L130.784,154.924L130.784,154.971C131.583,154.971 131.936,155.089 131.936,155.805L131.936,162.233C131.936,162.95 131.583,163.067 130.784,163.067L130.784,163.114Z" style="fill:none;stroke:black;stroke-width:1px;"/>
        <path d="M149.539,163.267C151.865,163.267 153.616,161.552 153.616,159.107C153.616,156.51 151.865,154.771 149.539,154.771C147.271,154.771 145.449,156.51 145.449,159.107C145.449,161.552 147.294,163.267 149.539,163.267ZM146.119,159.107C146.119,156.557 147.647,154.853 149.539,154.853C150.972,154.853 152.136,155.782 152.665,157.286C153.323,159.613 146.883,158.708 146.343,160.623C146.202,160.153 146.119,159.648 146.119,159.107ZM146.766,161.564C145.473,158.872 151.983,159.589 152.876,158.179C152.923,158.473 152.947,158.79 152.947,159.107C152.947,161.504 151.501,163.185 149.539,163.185C148.399,163.185 147.388,162.574 146.766,161.564Z"/>
        <path d="M149.539,163.267C151.865,163.267 153.616,161.552 153.616,159.107C153.616,156.51 151.865,154.771 149.539,154.771C147.271,154.771 145.449,156.51 145.449,159.107C145.449,161.552 147.294,163.267 149.539,163.267ZM146.119,159.107C146.119,156.557 147.647,154.853 149.539,154.853C150.972,154.853 152.136,155.782 152.665,157.286C153.323,159.613 146.883,158.708 146.343,160.623C146.202,160.153 146.119,159.648 146.119,159.107ZM146.766,161.564C145.473,158.872 151.983,159.589 152.876,158.179C152.923,158.473 152.947,158.79 152.947,159.107C152.947,161.504 151.501,163.185 149.539,163.185C148.399,163.185 147.388,162.574 146.766,161.564Z" style="fill:none;stroke:black;stroke-width:1px;"/>
        <path d="M166.519,155.629L166.883,156.111L166.883,162.233C166.883,162.95 166.531,163.067 165.731,163.067L165.731,163.114L168.493,163.114L168.493,163.067C167.459,163.067 167.001,162.95 167.001,162.233L167.001,156.264L172.159,163.114L172.629,163.114L172.629,155.805C172.629,155.089 172.876,154.971 173.44,154.971L173.44,154.924L171.019,154.924L171.019,154.971C172.053,154.971 172.512,155.089 172.512,155.805L172.512,162.409L166.883,154.924L165.602,154.924L165.602,154.971C165.872,154.971 166.084,155.053 166.519,155.629Z"/>
        <path d="M166.519,155.629L166.883,156.111L166.883,162.233C166.883,162.95 166.531,163.067 165.731,163.067L165.731,163.114L168.493,163.114L168.493,163.067C167.459,163.067 167.001,162.95 167.001,162.233L167.001,156.264L172.159,163.114L172.629,163.114L172.629,155.805C172.629,155.089 172.876,154.971 173.44,154.971L173.44,154.924L171.019,154.924L171.019,154.971C172.053,154.971 172.512,155.089 172.512,155.805L172.512,162.409L166.883,154.924L165.602,154.924L165.602,154.971C165.872,154.971 166.084,155.053 166.519,155.629Z" style="fill:none;stroke:black;stroke-width:1px;"/>
        <path d="M112.6,4.8C172.538,4.8 221.2,53.462 221.2,113.4C221.2,173.338 172.538,222 112.6,222C52.662,222 4,173.338 4,113.4C4,53.462 52.662,4.8 112.6,4.8Z" style="fill:none;stroke:black;stroke-width:8px;stroke-linecap:round;"/>
    </g>
</svg>
